<?xml version="1.0" standalone="no"?>
<!DOCTYPE svg PUBLIC "-//W3C//DTD SVG 20010904//EN"
 "http://www.w3.org/TR/2001/REC-SVG-20010904/DTD/svg10.dtd">
<svg version="1.0" xmlns="http://www.w3.org/2000/svg"
 width="260.000000pt" height="260.000000pt" viewBox="0 0 260.000000 260.000000"
 preserveAspectRatio="xMidYMid meet">
<metadata>
Created by potrace 1.11, written by Peter Selinger 2001-2013
</metadata>
<g transform="translate(0.000000,260.000000) scale(0.100000,-0.100000)"
fill="#000000" stroke="none">
<path d="M950 2455 c-14 -17 -4 -55 16 -55 8 0 17 -1 20 -2 4 -2 13 7 21 18
12 19 12 24 -2 38 -20 20 -39 20 -55 1z"/>
<path d="M806 2395 c-3 -9 0 -15 9 -15 16 0 20 16 6 24 -5 3 -11 -1 -15 -9z"/>
<path d="M620 2330 c0 -25 29 -38 41 -19 15 25 10 39 -16 39 -18 0 -25 -5 -25
-20z"/>
<path d="M1175 2320 c-9 -15 7 -41 22 -36 8 3 17 6 19 6 2 0 4 8 4 18 0 18
-35 28 -45 12z"/>
<path d="M1021 2297 c-7 -9 -22 -17 -34 -19 -14 -2 -20 -9 -18 -18 3 -8 5 -27
4 -42 0 -24 4 -28 28 -28 15 0 31 -4 34 -10 7 -12 26 -14 24 -2 -3 19 3 33 22
51 l21 19 -21 7 c-12 3 -21 10 -21 14 0 4 -6 15 -13 25 -12 16 -14 16 -26 3z"/>
<path d="M450 2255 c0 -8 7 -15 15 -15 8 0 15 7 15 15 0 8 -7 15 -15 15 -8 0
-15 -7 -15 -15z"/>
<path d="M789 2225 c-134 -70 -140 -260 -10 -333 76 -43 159 -36 223 19 l33
28 -39 1 c-85 0 -166 69 -181 151 -8 41 8 111 30 133 34 34 8 34 -56 1z"/>
<path d="M1303 2193 c-8 -17 -7 -25 6 -37 26 -24 60 -10 59 24 -1 23 -6 29
-28 32 -20 3 -29 -2 -37 -19z"/>
<path d="M534 2155 c-7 -18 3 -35 22 -35 20 0 30 30 13 41 -20 12 -29 11 -35
-6z"/>
<path d="M1103 2085 c-17 -19 -3 -50 22 -50 26 0 37 36 16 52 -20 16 -23 15
-38 -2z"/>
<path d="M1250 2005 c0 -10 7 -15 18 -13 21 4 19 22 -2 26 -10 2 -16 -3 -16
-13z"/>
<path d="M590 1976 c0 -9 7 -16 16 -16 17 0 14 22 -4 28 -7 2 -12 -3 -12 -12z"/>
<path d="M943 1760 c-101 -22 -222 -122 -266 -217 -26 -59 -33 -183 -12 -222
12 -23 11 -28 -16 -58 -55 -64 -51 -151 12 -214 21 -21 45 -39 53 -39 9 0 15
-17 18 -50 9 -94 91 -162 196 -163 30 0 57 4 61 11 10 16 48 4 54 -18 6 -25
81 -78 131 -92 23 -6 59 -11 81 -10 42 2 145 47 145 63 0 5 9 9 20 9 11 0 19
-5 17 -12 -1 -6 17 -22 41 -36 32 -18 57 -24 101 -23 73 0 112 16 174 70 27
22 58 42 70 42 12 1 27 2 32 4 6 1 21 3 35 3 74 5 153 100 152 184 -1 35 5 46
44 85 55 56 72 107 55 163 -15 50 -63 106 -106 124 -22 9 -35 23 -39 42 -12
46 -63 120 -104 147 -135 92 -321 70 -498 -58 -21 -15 -23 -14 -43 13 -18 25
-19 34 -10 61 22 62 -21 115 -88 113 -21 -1 -50 9 -80 29 -71 44 -161 64 -230
49z"/>
<path d="M566 564 c-27 -19 -44 -92 -42 -184 1 -68 4 -85 16 -85 12 0 14 14
12 76 -6 119 24 192 63 159 19 -15 37 -99 37 -170 1 -52 3 -60 20 -60 18 0 19
6 15 83 -6 114 28 173 72 126 23 -25 29 -63 25 -151 -4 -69 5 -89 26 -63 15
18 16 126 1 181 -20 75 -74 102 -118 58 -27 -27 -28 -26 -53 17 -12 22 -53 29
-74 13z"/>
<path d="M1195 559 c-4 -6 -4 -25 -1 -44 5 -26 3 -36 -11 -44 -17 -9 -17 -10
1 -30 17 -19 18 -28 9 -77 -10 -56 -4 -71 22 -60 11 4 15 23 15 70 0 74 5 79
90 75 l50 -3 0 -74 c0 -64 2 -73 17 -70 15 3 17 19 17 136 1 118 -1 132 -16
132 -13 0 -18 -10 -20 -42 -2 -35 -7 -43 -23 -44 -11 -1 -41 -4 -67 -7 l-48
-5 0 49 c0 36 -4 49 -14 49 -8 0 -18 -5 -21 -11z"/>
<path d="M1023 509 c5 -18 3 -20 -21 -13 -69 19 -124 -4 -148 -62 -42 -99 51
-178 158 -133 51 21 75 102 44 145 -13 16 -13 21 0 35 18 21 8 49 -18 49 -16
0 -19 -5 -15 -21z m-18 -61 c55 -49 32 -125 -40 -132 -91 -9 -125 110 -40 144
33 14 53 11 80 -12z"/>
<path d="M2070 513 c-63 -18 -86 -57 -77 -130 6 -53 41 -94 80 -92 35 1 90 24
101 42 17 26 2 29 -49 7 -44 -19 -50 -19 -71 -5 -24 16 -33 44 -14 46 6 1 13
2 18 3 4 1 28 5 54 10 55 8 71 28 55 64 -12 26 -74 62 -97 55z m54 -55 c14
-23 10 -25 -51 -33 -58 -7 -67 3 -36 37 21 23 71 21 87 -4z"/>
<path d="M1510 503 c-41 -13 -60 -29 -75 -59 -36 -76 17 -158 98 -156 131 4
161 158 41 208 -35 15 -40 15 -64 7z m76 -57 c21 -17 28 -33 28 -58 0 -47 -25
-70 -75 -71 -77 -2 -113 80 -55 130 35 29 68 29 102 -1z"/>
<path d="M1665 501 c-3 -5 -3 -38 1 -73 3 -35 7 -79 8 -98 2 -26 7 -35 21 -35
16 0 18 8 16 67 -2 57 1 70 19 88 20 20 23 20 39 6 21 -19 40 -80 37 -116 -3
-29 11 -51 27 -44 8 3 11 22 9 53 -3 40 1 53 22 77 20 24 28 27 43 18 27 -16
42 -71 31 -112 -12 -43 5 -68 27 -39 15 21 13 113 -4 144 -27 51 -69 61 -107
26 l-28 -25 -19 26 c-30 42 -51 49 -80 26 -25 -20 -25 -20 -30 0 -5 21 -22 26
-32 11z"/>
<path d="M739 253 c-1 -4 -1 -12 0 -16 1 -4 -6 -21 -14 -37 -21 -40 -19 -53 4
-38 15 9 23 9 35 -1 21 -18 21 0 1 40 -9 16 -13 34 -10 39 3 5 1 11 -5 15 -5
3 -11 3 -11 -2z"/>
<path d="M1464 228 c-17 -40 -11 -73 14 -76 12 -2 22 1 22 7 0 6 -8 11 -17 11
-15 0 -14 2 3 15 19 14 19 14 -1 15 -18 1 -18 2 -3 11 10 5 15 16 12 24 -9 21
-19 18 -30 -7z"/>
<path d="M2091 200 c-1 -30 2 -50 9 -50 5 0 10 22 10 50 0 28 -4 50 -8 50 -5
0 -9 -22 -11 -50z"/>
<path d="M2138 206 c-4 -39 0 -58 12 -51 5 3 7 12 3 20 -8 21 7 18 34 -7 l23
-21 0 41 c0 24 -5 42 -11 42 -6 0 -9 -9 -6 -20 7 -27 -8 -25 -31 5 l-20 25 -4
-34z"/>
<path d="M330 215 c-25 -31 9 -76 46 -60 17 8 16 9 -8 13 -38 5 -40 42 -3 42
14 0 25 5 25 10 0 15 -46 12 -60 -5z"/>
<path d="M410 190 c0 -22 5 -40 10 -40 6 0 10 6 10 14 0 24 21 30 27 7 8 -31
20 -17 17 21 -3 45 -3 45 -15 26 -12 -22 -29 -23 -29 -3 0 8 -4 15 -10 15 -5
0 -10 -18 -10 -40z"/>
<path d="M500 201 c0 -16 7 -37 16 -46 15 -14 18 -15 34 0 17 15 21 57 7 71
-7 8 -11 -9 -8 -38 1 -10 -4 -18 -13 -18 -11 0 -16 9 -16 30 0 17 -4 30 -10
30 -5 0 -10 -13 -10 -29z"/>
<path d="M590 190 c0 -22 5 -40 10 -40 6 0 10 5 10 11 0 7 7 17 17 24 21 16
10 45 -17 45 -17 0 -20 -6 -20 -40z"/>
<path d="M804 190 c0 -43 13 -55 18 -17 l3 22 23 -22 c12 -13 24 -23 27 -23 3
0 5 18 5 40 0 22 -4 40 -10 40 -5 0 -10 -10 -10 -22 l0 -21 -23 21 c-13 12
-26 22 -28 22 -3 0 -5 -18 -5 -40z"/>
<path d="M909 228 c-5 -16 -3 -70 3 -74 4 -3 8 2 8 10 0 24 21 30 27 7 9 -35
23 -24 23 19 0 40 -13 53 -24 25 -3 -8 -10 -15 -16 -15 -6 0 -9 4 -5 9 3 5 1
12 -5 16 -5 3 -10 5 -11 3z"/>
<path d="M1050 215 c-18 -21 2 -65 29 -65 28 0 36 18 9 22 -34 5 -37 38 -4 38
14 0 26 5 26 10 0 16 -46 12 -60 -5z"/>
<path d="M1130 190 c0 -22 5 -40 10 -40 6 0 10 9 10 20 0 27 18 25 30 -2 10
-27 12 -25 15 25 1 20 -1 37 -6 37 -5 0 -9 -7 -9 -15 0 -8 -5 -15 -10 -15 -6
0 -13 7 -16 15 -11 28 -24 15 -24 -25z"/>
<path d="M1232 218 c-16 -16 -15 -43 3 -58 20 -17 61 -5 68 20 10 38 -43 66
-71 38z m53 -28 c0 -8 -10 -16 -22 -18 -18 -3 -23 2 -23 18 0 16 5 21 23 18
12 -2 22 -10 22 -18z"/>
<path d="M1378 194 c-5 -39 3 -48 32 -39 23 7 24 13 10 49 -14 38 -37 33 -42
-10z"/>
<path d="M1594 222 c-5 -4 -10 -21 -12 -39 -3 -31 -2 -32 31 -31 28 1 33 4 30
19 -3 11 -10 16 -15 13 -6 -4 -8 1 -4 14 7 20 -13 36 -30 24z"/>
<path d="M1720 210 c-20 -38 12 -70 54 -54 21 8 21 41 1 41 -10 0 -14 -6 -10
-14 3 -10 -1 -13 -12 -11 -10 2 -19 11 -21 21 -3 13 3 17 28 17 18 0 29 4 25
10 -11 18 -54 11 -65 -10z"/>
<path d="M1814 195 c2 -19 7 -34 12 -33 13 4 10 61 -3 65 -7 3 -10 -9 -9 -32z"/>
<path d="M1870 190 c-20 -39 -16 -52 8 -28 10 10 17 10 32 0 13 -8 20 -8 20
-2 0 13 -29 70 -35 70 -3 0 -14 -18 -25 -40z"/>
<path d="M2006 213 c-10 -34 0 -58 24 -58 30 0 49 29 34 53 -15 24 -51 28 -58
5z m44 -23 c0 -11 -6 -20 -13 -20 -7 0 -13 9 -13 20 0 11 6 20 13 20 7 0 13
-9 13 -20z"/>
<path d="M2239 215 c-4 -46 -3 -55 6 -54 6 1 9 5 8 9 -1 4 4 11 12 14 10 4 15
-1 15 -14 0 -11 5 -20 10 -20 6 0 10 18 10 40 0 22 -4 40 -10 40 -5 0 -10 -7
-10 -15 0 -8 -7 -15 -15 -15 -9 0 -12 6 -9 15 4 8 1 15 -5 15 -6 0 -11 -7 -12
-15z"/>
</g>
</svg>
